<svg viewBox="0 0 258 148" version="1.1" xmlns="http://www.w3.org/2000/svg" xmlns:xlink="http://www.w3.org/1999/xlink">
    <defs>
        <polygon id="path-{{maskIconIndex}}" points="0 0.0582677165 72.9475556 0.0582677165 72.9475556 147.818307 0 147.818307"></polygon>
    </defs>
    <g stroke="none" stroke-width="1" fill="none" fill-rule="evenodd">
        <g transform="translate(-81.000000, -318.000000)">
            <g transform="translate(81.000000, 318.000000)">
                <g transform="translate(0.000000, 34.000000)" fill="#333031" id="Group-8">
                    <path d="M1.97997589,81 L12.3797596,81 L12.3797596,37.1070515 L1.97997589,37.1070515 L1.97997589,81 Z M0.6796875,26.3769882 C0.6796875,24.4768728 1.26584467,22.9385999 2.43888,21.762877 C3.61119435,20.5882152 5.19158368,20 7.18004799,20 C9.21825996,20 10.8119874,20.5882152 11.9590675,21.762877 C13.106508,22.9385999 13.6796875,24.4768728 13.6796875,26.3769882 C13.6796875,28.2792258 13.106508,29.8044115 11.9590675,30.9543138 C10.8119874,32.1056309 9.21825996,32.6796978 7.18004799,32.6796978 C5.08848346,32.6796978 3.48285981,32.1056309 2.36245607,30.9543138 C1.24061036,29.8044115 0.6796875,28.2792258 0.6796875,26.3769882 L0.6796875,26.3769882 Z" id="Fill-1"></path>
                    <polygon id="Fill-3" points="35.4807466 36.6162425 20.6796875 36.6162425 20.6796875 27 60.6796875 27 60.6796875 36.6162425 45.803131 36.6162425 45.803131 81 35.4807466 81"></polygon>
                    <path d="M77.290841,45.1228718 C74.2658519,45.1228718 71.6497115,45.8113155 69.4438223,47.1889255 C67.2372318,48.5661741 65.6877445,50.3821474 64.7953604,52.6353999 L89.4896785,52.6353999 C88.7459666,50.1721812 87.3069316,48.3052522 85.1753785,47.0320832 C83.0427735,45.7599984 80.4147112,45.1228718 77.290841,45.1228718 M77.6628723,81 C74.241307,81 71.1174368,80.4206955 68.2912618,79.2638934 C65.4643855,78.1070912 63.0470591,76.5173466 61.0385813,74.4975506 C59.0308049,72.4788387 57.4686945,70.1009075 56.3533021,67.3673707 C55.2368577,64.6341953 54.6796875,61.7149052 54.6796875,58.6113074 C54.6796875,55.4589223 55.2614027,52.5020479 56.4272875,49.7439367 C57.5914192,46.9854642 59.1910483,44.5956071 61.2247723,42.5758111 C63.257795,40.5563765 65.6505764,38.9561516 68.402766,37.7740524 C71.1546049,36.5919531 74.1171797,36 77.290841,36 C80.5139429,36 83.5017639,36.5388291 86.2539535,37.6168487 C89.0061431,38.6948683 91.3733276,40.2040235 93.3576111,42.1446756 C95.3401413,44.0849663 96.8903299,46.372912 98.0060729,49.0085127 C99.1221666,51.6433906 99.6796875,54.5185914 99.6796875,57.6323081 L99.6796875,61.2978638 L64.2743063,61.2978638 C64.968227,64.4672342 66.4801955,67.0222454 68.8116146,68.9643431 C71.1416311,70.9068021 74.0926348,71.8771282 77.6628723,71.8771282 C80.4893979,71.8771282 82.9438924,71.1623032 85.0267063,69.7308465 C87.1091695,68.3004738 88.6716305,66.3836733 89.7130375,63.9808063 L97.9689049,68.8873675 C96.0838531,72.5167845 93.4431677,75.4418567 90.0471993,77.665114 C86.650179,79.8883713 82.5224206,81 77.6628723,81" id="Fill-4"></path>
                    <path d="M120.439945,81 C115.525139,81 111.445829,80.0770157 108.203805,78.2324928 C104.961065,76.3883312 102.452428,73.7216511 100.679688,70.2335368 L110.179688,65.9214584 C111.243762,67.8863235 112.687966,69.3954786 114.512298,70.4496466 C116.335556,71.5034533 118.464063,72.0303566 120.895312,72.0303566 C123.429028,72.0303566 125.328598,71.5189929 126.595814,70.4959043 C127.861238,69.4728156 128.495742,68.2545776 128.495742,66.8411902 C128.495742,66.0631224 128.20339,65.4292483 127.621553,64.9417363 C127.038641,64.4545856 126.278741,64.0281481 125.342212,63.6620623 C124.403533,63.2970607 123.301482,62.9927722 122.036057,62.7484741 C120.768483,62.5052602 119.452183,62.2371105 118.083934,61.9451092 C116.157493,61.5551719 114.270463,61.0933183 112.422126,60.557019 C110.57164,60.021081 108.91283,59.2784292 107.443905,58.3272567 C105.973906,57.3778911 104.783361,56.1596531 103.871553,54.6732653 C102.960103,53.187239 102.503662,51.3239239 102.503662,49.0825972 C102.503662,47.3772085 102.921768,45.7325329 103.757622,44.1489319 C104.593834,42.5656923 105.772198,41.1653148 107.291997,39.9470768 C108.811438,38.7288387 110.647952,37.767186 112.801897,37.0599502 C114.954767,36.3534372 117.348397,36 119.983862,36 C124.441869,36 128.15359,36.8326373 131.117951,38.4971892 C134.081954,40.1628252 136.424351,42.4272808 138.148009,45.2948924 L129.407908,49.4634998 C128.495742,47.9590427 127.228884,46.7711613 125.608052,45.896603 C123.985427,45.0234902 122.111653,44.5858497 119.983862,44.5858497 C117.551538,44.5858497 115.752643,45.0491487 114.587894,45.9753855 C113.421711,46.9027064 112.839874,47.974221 112.839874,49.192459 C112.839874,50.6058465 113.700807,51.6188163 115.423748,52.2270318 C117.145255,52.8363315 119.680046,53.4821314 123.023819,54.1651542 C124.848152,54.5063042 126.683591,54.9569547 128.534077,55.5171057 C130.382414,56.0779794 132.067736,56.8336412 133.587894,57.7848137 C135.107693,58.7356248 136.335499,59.9538628 137.274178,61.4402506 C138.210707,62.9280838 138.679688,64.7917604 138.679688,67.0345326 C138.679688,68.5462175 138.324638,70.1171699 137.615613,71.7502811 C136.905513,73.384115 135.803462,74.8947157 134.309458,76.2842515 C132.814738,77.6737873 130.927708,78.8063765 128.64765,79.6834645 C126.367951,80.5612753 123.632169,81 120.439945,81" id="Fill-5"></path>
                    <path d="M140.679688,37.525685 L148.285437,37.525685 L148.285437,30.9117343 L158.629372,24 L158.629372,37.525685 L167.679688,37.525685 L167.679688,46.5173507 L158.629372,46.5173507 L158.629372,62.7931556 C158.629372,64.6761994 158.729764,66.1998009 158.933057,67.3632592 C159.135275,68.5281189 159.553693,69.4197183 160.187954,70.038758 C160.821497,70.6588487 161.734704,71.0673378 162.926497,71.2645757 C164.117215,71.463215 165.702329,71.5623594 167.679688,71.5623594 L167.679688,81 L166.234405,81 C162.785949,81 159.909008,80.7032673 157.602149,80.1084006 C155.294215,79.5138843 153.457405,78.5101781 152.088492,77.0986835 C150.718862,75.6864882 149.742193,73.828318 149.159921,71.5245234 C148.576573,69.221079 148.285437,66.33538 148.285437,62.8667257 L148.285437,46.5173507 L140.679688,46.5173507 L140.679688,37.525685 Z" id="Fill-6"></path>
                    <path d="M92.3202804,9.2871352 C92.3202804,9.2871352 90.9844402,8.46554399 90.1585576,8.14772536 C90.1585576,8.14772536 87.6016621,6.96801371 87.0938367,6.4076772 C87.0938367,6.4076772 86.0977314,5.47331163 86.6812508,4.38834458 C86.6812508,4.38834458 86.9253908,3.67811363 87.9783555,3.67811363 C87.9783555,3.67811363 89.3497329,3.75306084 89.3497329,4.87373388 L89.3497329,6.45540302 L94.2627391,6.45540302 L94.2542102,4.12673637 C94.2542102,4.12673637 94.6323251,0.312205746 88.4669909,0.144635077 C88.4669909,0.144635077 83.6175961,-0.172476505 82.2266733,2.42592943 C82.2266733,2.42592943 81.6808232,3.00535628 81.6808232,5.02398184 L81.6808232,6.48262441 C81.6808232,6.48262441 81.6253853,8.16504807 82.4889373,9.24966159 C82.4889373,9.24966159 82.9775726,9.96024607 84.180504,10.7450707 C84.180504,10.7450707 86.6233253,12.0534653 88.0895867,12.802584 C88.0895867,12.802584 89.5693522,13.642912 89.3749642,14.9802956 C89.3749642,14.9802956 89.2544934,16.3540923 87.8248352,16.2978819 C87.8248352,16.2978819 86.5181355,16.2395503 86.5181355,14.8929751 L86.5181355,13.31272 L81.2824522,13.31272 L81.2824522,15.6081554 C81.2824522,15.6081554 81.1360392,19.9982241 87.8635707,19.9982241 C87.8635707,19.9982241 94.2922349,20.1276141 94.5921682,15.4929063 L94.5921682,13.6234682 C94.5907467,13.6234682 94.8192504,10.7832514 92.3202804,9.2871352 L92.3202804,9.2871352 Z M68.3835452,0.691184135 L66.7385321,10.9476403 L66.3529544,10.9476403 L64.7815031,0.783100536 L56.5745616,0.783100536 L56.1633972,19.3572839 L61.0227424,19.3572839 L61.0806679,5.36265843 L61.4630472,5.36265843 L64.0387774,19.3548093 L69.1507915,19.3548093 L71.695249,5.3679613 L72.0339177,5.3679613 L72.1508349,19.3572839 L77.0361222,19.3572839 L76.5105282,0.691184135 L68.3835452,0.691184135 Z M40.403397,0.768606026 L37.1705856,19.3360724 L42.4020044,19.3360724 L44.3170996,4.93984298 L44.747454,4.93984298 L46.6614831,19.3360724 L51.8921912,19.3360724 L48.6597351,0.768606026 L40.403397,0.768606026 Z M144.354081,9.0315369 L144.354081,11.7706456 L145.696318,11.7706456 L145.696318,14.7102028 C145.696318,16.1476339 144.461758,16.1741483 144.461758,16.1741483 C142.960315,16.1741483 143.016819,14.8081291 143.016819,14.8081291 L143.016819,4.63899354 C143.016819,3.59150009 144.349106,3.53493616 144.349106,3.53493616 C145.627731,3.53493616 145.63626,4.78464568 145.63626,4.78464568 L145.63626,6.33096235 L150.561349,6.33096235 C150.722687,3.31221565 150.11749,2.58218731 150.11749,2.58218731 C148.89608,-0.148083306 144.273412,0.00145760708 144.273412,0.00145760708 C137.170964,0.00145760708 137.959177,5.42275761 137.959177,5.42275761 L137.959177,15.2560448 C138.111986,20.3407894 145.111021,19.8239364 145.229005,19.8200476 C148.342411,19.4771288 149.282013,18.4925627 149.282013,18.4925627 C150.147342,17.8533902 150.37087,16.967811 150.37087,16.967811 C150.617853,16.4516651 150.679688,14.8081291 150.679688,14.8081291 L150.679688,9.0315369 L144.354081,9.0315369 Z M128.975394,12.0534653 L128.761105,12.0534653 L123.762454,0.69613348 L117.782269,0.69613348 L117.782269,19.358698 L122.649787,19.358698 L122.358028,8.00348732 L122.576225,8.00348732 L127.754339,19.358698 L133.552574,19.358698 L133.552574,0.694365857 L128.623577,0.694365857 L128.975394,12.0534653 Z M107.39015,14.7084352 C107.39015,14.7084352 107.460513,16.2406109 106.032632,16.2406109 C106.032632,16.2406109 104.531544,16.3205075 104.531544,14.7473229 L104.516263,0.707092743 L99.1775223,0.707092743 L99.1775223,14.6352556 C99.1775223,14.6352556 98.6302507,19.9070791 106.108326,19.9070791 C106.108326,19.9070791 112.606643,19.983376 112.606643,14.87742 L112.606643,0.707799792 L107.39015,0.707799792 L107.39015,14.7084352 Z M31.7149275,9.2871352 C31.7149275,9.2871352 30.3808642,8.46554399 29.5535601,8.14843241 C29.5535601,8.14843241 26.9987969,6.97013486 26.4913268,6.40803072 C26.4913268,6.40803072 25.4948661,5.47260458 26.0794517,4.38975868 C26.0794517,4.38975868 26.3225255,3.68023477 27.3751349,3.68023477 C27.3751349,3.68023477 28.7468676,3.75376789 28.7468676,4.87514798 L28.7468676,6.45611007 L33.6616507,6.45611007 L33.6524111,4.12673637 C33.6524111,4.12673637 34.027683,0.312205746 27.8648364,0.145342126 C27.8648364,0.145342126 27.4003663,0.115646058 26.7187644,0.149937946 C26.7187644,0.149937946 22.9855904,0.34932583 21.6508163,2.3866882 C21.6429981,2.40224328 21.6319816,2.41320255 21.6241635,2.42663648 C21.6241635,2.42663648 21.0793795,3.00535628 21.0793795,5.02468889 L21.0793795,6.48333146 C21.0793795,6.48333146 21.0228754,8.16575512 21.8871381,9.25036864 C21.8871381,9.25036864 22.3757735,9.96166017 23.5783495,10.7457778 C23.5783495,10.7457778 26.0208154,12.0541724 27.4870768,12.803291 C27.4870768,12.803291 28.9686192,13.642205 28.7720989,14.9817097 C28.7720989,14.9817097 28.6516281,16.3547993 27.2233914,16.2982354 C27.2233914,16.2982354 25.9166917,16.2406109 25.9166917,14.8936821 L25.9166917,13.31272 L20.6799423,13.31272 L20.6799423,15.6095695 C20.6799423,15.6095695 20.5335294,19.9996382 27.26035,19.9996382 C27.26035,19.9996382 33.6875928,20.1290282 33.9900137,15.4943204 L33.9900137,13.6266499 C33.9900137,13.6252358 34.2146082,10.7832514 31.7149275,9.2871352 L31.7149275,9.2871352 Z" id="Fill-7"></path>
                </g>
                <g transform="translate(185.000000, 0.000000)">
                    <g>
                        <mask id="mask-{{maskIconIndex}}" fill="white">
                            <use xlink:href="#path-{{maskIconIndex}}"></use>
                        </mask>
                        <g></g>
                        <path d="M35.5530063,58.3509843 C33.8862444,63.1757874 33.0299587,68.248622 33.0299587,73.4903543 C33.0299587,78.7675197 33.8979905,83.8734252 35.5988159,88.7549213 C35.5988159,88.7549213 36.5291016,91.4218504 37.5181175,93.4084646 C38.5071333,95.3927165 39.8990381,97.751378 39.8990381,97.751378 C46.6165937,108.540748 57.3078317,115.408858 69.3005302,116.565157 L69.3005302,136.829331 C69.3005302,140.866339 65.997546,144.150984 61.9381175,144.150984 L11.009673,144.150984 C6.94906984,144.150984 3.64608571,140.866339 3.64608571,136.829331 L3.64608571,11.0466535 C3.64608571,7.00846457 6.94906984,3.725 11.009673,3.725 L17.652054,3.725 C17.8247206,3.91988189 17.9445302,4.18090551 17.9445302,4.54822835 C17.9445302,6.09901575 18.5506254,8.9773622 22.1965937,8.9773622 L34.5498952,8.9773622 L35.5635778,8.9773622 L37.3865619,8.9773622 L40.6249429,8.9773622 L50.7511968,8.9773622 C54.3971651,8.9773622 55.0044349,6.09901575 55.0044349,4.54822835 C55.0044349,4.18090551 55.1230698,3.91988189 55.2969111,3.725 L61.9381175,3.725 C65.997546,3.725 69.3005302,7.00846457 69.3005302,11.0466535 L69.3005302,30.4179134 C57.2819905,31.5777559 46.5696095,38.4730315 39.8367841,49.3379921 C39.8367841,49.3379921 38.2733873,51.9139764 37.4535143,53.6454724 C36.6336413,55.3769685 35.5530063,58.3509843 35.5530063,58.3509843 L35.5530063,58.3509843 Z M40.1374825,90.3895669 C37.8446571,85.0887795 36.675927,79.4064961 36.675927,73.4903543 C36.675927,67.6167323 37.8305619,61.971063 40.0717048,56.7494094 L41.1864032,54.3647638 L41.3391016,54.0470472 C47.5222127,42.0801181 58.6891651,34.5600394 71.2092603,33.9340551 C71.7683714,33.9057087 72.3298317,33.8915354 72.8948159,33.8915354 L72.8948159,32.2202756 L72.947673,32.2202756 L72.947673,11.0466535 C72.947673,4.98641732 68.0084667,0.0576771654 61.9381175,0.0576771654 L11.009673,0.0576771654 C4.93932381,0.0576771654 -0.00105714286,4.98641732 -0.00105714286,11.0466535 L-0.00105714286,136.829331 C-0.00105714286,142.888386 4.93932381,147.818307 11.009673,147.818307 L61.9381175,147.818307 C68.0084667,147.818307 72.947673,142.888386 72.947673,136.829331 L72.947673,114.954134 L72.8948159,114.954134 L72.8948159,113.089173 C72.3333556,113.089173 71.775419,113.076181 71.2186571,113.047835 C58.6938635,112.424213 47.5233873,104.905315 41.3625937,92.9832677 L41.2604032,92.7694882 L40.1374825,90.3895669 Z" id="Fill-1" fill="#2D2A2B" mask="url(#mask-{{maskIconIndex}})"></path>
                    </g>
                    <path d="M58,55.5 C58,57.4549658 56.4094178,59 54.5,59 C52.5450342,59 51,57.4094178 51,55.5 C51,53.5450342 52.5905822,52 54.5,52 C56.4094178,52 58,53.5450342 58,55.5" id="Fill-4" fill="#2D2A2B"></path>
                    <path d="M51,91.4994008 C51,93.4084917 52.5450342,95 54.5,95 C56.4094178,95 58,93.4540318 58,91.4994008 C58,89.5459682 56.4094178,88 54.5,88 C52.5905822,88 51,89.5459682 51,91.4994008" id="Fill-6" fill="#2D2A2B"></path>
                    <path d="M41,95 L33.8481728,99.0886397 C33.8458098,99.0898033 33.8434467,99.0921303 33.8410836,99.0932938 L27.9901257,102.438439 C27.3308296,102.828221 27,103.47747 27,104.127882 C27,104.452507 27.0661659,104.777131 27.2646637,105.037762 C27.621487,105.652105 28.2796017,106 28.9554393,106 C29.2779981,106 29.6041016,105.92088 29.9030298,105.752168 L35.7575323,102.403533 C35.7587138,102.402369 35.7598953,102.402369 35.7610769,102.402369 L41,99.4062831 L41,95 Z" id="Fill-8" fill="#2D2A2B"></path>
                    <path d="M41,47.5937169 L35.7610769,44.5976306 C35.7598953,44.5964671 35.7587138,44.5964671 35.7575323,44.5953036 L29.9030298,41.2478316 C29.6041016,41.0791199 29.2779981,41 28.9554393,41 C28.2796017,41 27.621487,41.3467315 27.2646637,41.9622382 C27.0661659,42.2228686 27,42.5474931 27,42.8721176 C27,43.5213666 27.3308296,44.1717791 27.9901257,44.5627248 L33.8410836,47.9067062 C33.8434467,47.9078697 33.8458098,47.9101967 33.8481728,47.9113603 L41,52 L41,47.5937169 Z" id="Fill-10" fill="#2D2A2B"></path>
                </g>
            </g>
        </g>
    </g>
</svg>