<svg viewBox="0 0 253 120" version="1.1" xmlns="http://www.w3.org/2000/svg" xmlns:xlink="http://www.w3.org/1999/xlink">
    <defs>
        <polygon id="path-0" points="0.549042408 0 251.549042 0 251.549042 120 0.549042408 120"></polygon>
    </defs>
    <g stroke="none" stroke-width="1" fill="none" fill-rule="evenodd">
        <g transform="translate(-841.000000, -405.000000)">
            <g transform="translate(841.450958, 405.000000)">
                <mask id="mask-0" fill="white">
                    <use xlink:href="#path-0"></use>
                </mask>
                <g></g>
                <path d="M2.54948609,120 L18.5491533,120 L18.5491533,55.2399121 L2.54948609,55.2399121 L2.54948609,120 Z M0.549042408,39.408671 C0.549042408,36.6052221 1.45082267,34.3356392 3.25549241,32.600966 C5.05905295,30.8678584 7.49042114,30 10.549597,30 C13.6853077,30 16.1371961,30.8678584 17.9019346,32.600966 C19.6672278,34.3356392 20.5490424,36.6052221 20.5490424,39.408671 C20.5490424,42.2152512 19.6672278,44.4655251 17.9019346,46.1621023 C16.1371961,47.8607669 13.6853077,48.7077508 10.549597,48.7077508 C7.33180543,48.7077508 4.8616152,47.8607669 3.13791712,46.1621023 C1.41200065,44.4655251 0.549042408,42.2152512 0.549042408,39.408671 L0.549042408,39.408671 Z" id="Fill-1" fill="#2D2A2B" mask="url(#mask-0)"></path>
                <polygon id="Fill-3" fill="#2D2A2B" mask="url(#mask-0)" points="51.1206576 52.6024423 28.5490424 52.6024423 28.5490424 38 89.5490424 38 89.5490424 52.6024423 66.8622938 52.6024423 66.8622938 120 51.1206576 120"></polygon>
                <path d="M114.219478,67.380212 C109.581161,67.380212 105.569746,68.3899293 102.187382,70.410424 C98.8039436,72.4303887 96.4280631,75.0938163 95.0597409,78.3985866 L132.924362,78.3985866 C131.784004,74.7858657 129.577483,72.0477032 126.309102,70.1803887 C123.039108,68.3146643 119.009412,67.380212 114.219478,67.380212 M114.789926,120 C109.543526,120 104.753591,119.150353 100.420123,117.45371 C96.0855793,115.757067 92.3790122,113.425442 89.2993463,110.463074 C86.2207557,107.502297 83.8255198,104.014664 82.1152514,100.005477 C80.4033701,95.9968198 79.5490424,91.7151943 79.5490424,87.1632509 C79.5490424,82.5397527 80.4410057,78.2030035 82.2286958,74.1577739 C84.0136977,70.1120141 86.4664623,66.6068905 89.5848391,63.644523 C92.7021405,60.6826855 96.3710721,58.335689 100.591096,56.6019435 C104.810582,54.8681979 109.353197,54 114.219478,54 C119.161567,54 123.742893,54.7902827 127.962917,56.3713781 C132.182941,57.9524735 135.812624,60.1659011 138.855192,63.0121908 C141.895072,65.8579505 144.272027,69.2136042 145.982833,73.0791519 C147.694177,76.9436396 148.549042,81.1606007 148.549042,85.7273852 L148.549042,91.1035336 L94.2607913,91.1035336 C95.3248029,95.7519435 97.6431547,99.4992933 101.217997,102.347703 C104.790689,105.196643 109.315562,106.619788 114.789926,106.619788 C119.123932,106.619788 122.88749,105.571378 126.081138,103.471908 C129.274248,101.374028 131.670022,98.5627208 133.266846,95.0385159 L145.925842,102.234806 C143.03543,107.557951 138.986379,111.848057 133.779227,115.108834 C128.570463,118.369611 122.241233,120 114.789926,120" id="Fill-4" fill="#2D2A2B" mask="url(#mask-0)"></path>
                <path d="M181.669423,120 C174.42655,120 168.414935,118.64629 163.637216,115.940989 C158.858441,113.236219 155.161503,109.325088 152.549042,104.209187 L166.549042,97.8848057 C168.117152,100.766608 170.245452,102.980035 172.933942,104.526148 C175.620848,106.071731 178.757596,106.844523 182.340489,106.844523 C186.074386,106.844523 188.873752,106.094523 190.741228,104.593993 C192.606065,103.093463 193.541123,101.306714 193.541123,99.2337456 C193.541123,98.0925795 193.110288,97.1628975 192.252844,96.4478799 C191.393815,95.7333922 190.273963,95.1079505 188.893815,94.5710247 C187.5105,94.035689 185.886424,93.5893993 184.021587,93.2310954 C182.153583,92.8743816 180.213773,92.4810954 178.197406,92.0528269 C175.358441,91.4809187 172.577553,90.8035336 169.853689,90.0169611 C167.126656,89.2309187 164.682094,88.1416961 162.517363,86.7466431 C160.351049,85.3542403 158.596561,83.5674912 157.252844,81.3874558 C155.909655,79.2079505 155.237004,76.4750883 155.237004,73.1878092 C155.237004,70.6865724 155.853161,68.2743816 157.084945,65.9517668 C158.317258,63.629682 160.053794,61.5757951 162.293499,59.7890459 C164.532675,58.0022968 167.239116,56.5918728 170.413351,55.5545936 C173.586001,54.5183746 177.113456,54 180.9973,54 C187.566994,54 193.036899,55.2212014 197.405431,57.6625442 C201.773435,60.105477 205.225389,63.4266784 207.765515,67.6325088 L194.885368,73.7464664 C193.541123,71.5399293 191.674174,69.7977032 189.285579,68.5150177 C186.894343,67.2344523 184.132992,66.5925795 180.9973,66.5925795 C177.412823,66.5925795 174.76182,67.2720848 173.045347,68.6305654 C171.326762,69.990636 170.469317,71.5621908 170.469317,73.3489399 C170.469317,75.4219081 171.73806,76.9075972 174.277131,77.7996466 C176.81409,78.6932862 180.54957,79.6404594 185.477237,80.6422261 C188.165727,81.1425795 190.870584,81.8035336 193.597617,82.6250883 C196.321482,83.4477032 198.805114,84.5560071 201.045347,85.9510601 C203.285051,87.345583 205.094449,89.1323322 206.477765,91.3123675 C207.857913,93.494523 208.549042,96.2279152 208.549042,99.5173145 C208.549042,101.734452 208.025811,104.038516 206.980933,106.433746 C205.93447,108.830035 204.310394,111.045583 202.108704,113.083569 C199.905959,115.121555 197.125072,116.782686 193.764987,118.069081 C190.405431,119.356537 186.373752,120 181.669423,120" id="Fill-5" fill="#2D2A2B" mask="url(#mask-0)"></path>
                <path d="M212.549042,54.4071739 L223.81682,54.4071739 L223.81682,44.4282308 L239.141168,34 L239.141168,54.4071739 L252.549042,54.4071739 L252.549042,67.9735467 L239.141168,67.9735467 L239.141168,92.5300242 C239.141168,95.3711079 239.289896,97.669875 239.591071,99.4252683 C239.890653,101.182776 240.510532,102.527996 241.450178,103.461986 C242.388761,104.397561 243.741659,105.013878 245.507279,105.311465 C247.271305,105.611166 249.619622,105.760753 252.549042,105.760753 L252.549042,120 L250.407883,120 C245.299059,120 241.036925,119.552298 237.619356,118.65478 C234.200194,117.75779 231.478994,116.243427 229.450975,114.113803 C227.421893,111.983123 225.974977,109.179568 225.112352,105.703667 C224.248133,102.228295 223.81682,97.874433 223.81682,92.6410247 L223.81682,67.9735467 L212.549042,67.9735467 L212.549042,54.4071739 Z" id="Fill-6" fill="#2D2A2B" mask="url(#mask-0)"></path>
                <path d="M136.907769,14.3950596 C136.907769,14.3950596 134.92456,13.1215932 133.698442,12.6289743 C133.698442,12.6289743 129.902435,10.8004213 129.14851,9.93189965 C129.14851,9.93189965 127.669677,8.48363303 128.535979,6.8019341 C128.535979,6.8019341 128.898433,5.70107612 130.46168,5.70107612 C130.46168,5.70107612 132.497648,5.81724431 132.497648,7.55428752 L132.497648,10.0058747 L139.791573,10.0058747 L139.778911,6.39644137 C139.778911,6.39644137 140.340266,0.483918906 131.187116,0.224184369 C131.187116,0.224184369 123.98763,-0.267338582 121.922644,3.76019062 C121.922644,3.76019062 121.112267,4.65830223 121.112267,7.78717186 L121.112267,10.0480678 C121.112267,10.0480678 121.029963,12.6558245 122.312006,14.3369755 C122.312006,14.3369755 123.037441,15.4383814 124.823331,16.6548596 C124.823331,16.6548596 128.449982,18.6828713 130.626816,19.8440052 C130.626816,19.8440052 132.823699,21.1465136 132.535107,23.2194582 C132.535107,23.2194582 132.356254,25.3488431 130.233762,25.2617169 C130.233762,25.2617169 128.293815,25.171303 128.293815,23.0841113 L128.293815,20.634716 L120.520839,20.634716 L120.520839,24.1926408 C120.520839,24.1926408 120.303472,30.9972473 130.291269,30.9972473 C130.291269,30.9972473 139.835363,31.1978018 140.280648,24.0140048 L140.280648,21.1163756 C140.278538,21.1163756 140.617778,16.7140396 136.907769,14.3950596 L136.907769,14.3950596 Z M101.370923,1.07133541 L98.9287117,16.9688425 L98.3562771,16.9688425 L96.0232764,1.21380583 L83.8391247,1.21380583 L83.2287037,30.0037901 L90.4429623,30.0037901 L90.5289594,8.31212056 L91.0966457,8.31212056 L94.9206144,29.9999543 L102.509989,29.9999543 L106.28753,8.32034001 L106.790323,8.32034001 L106.9639,30.0037901 L114.216672,30.0037901 L113.436368,1.07133541 L101.370923,1.07133541 Z M59.831165,1.19133934 L55.0316834,29.9709123 L62.7983282,29.9709123 L65.641508,7.65675663 L66.2804189,7.65675663 L69.1220159,29.9709123 L76.8876056,29.9709123 L72.0886516,1.19133934 L59.831165,1.19133934 Z M214.157949,13.9988822 L214.157949,18.2445007 L216.150655,18.2445007 L216.150655,22.8008144 C216.150655,25.0288326 214.317809,25.0699298 214.317809,25.0699298 C212.088744,25.0699298 212.17263,22.9526002 212.17263,22.9526002 L212.17263,7.19043998 C212.17263,5.56682515 214.150563,5.47915104 214.150563,5.47915104 C216.04883,5.47915104 216.061492,7.4162008 216.061492,7.4162008 L216.061492,9.81299165 L223.373355,9.81299165 C223.612881,5.13393425 222.714396,4.00239033 222.714396,4.00239033 C220.901071,-0.229529124 214.038187,0.00225929097 214.038187,0.00225929097 C203.493783,0.00225929097 204.663977,8.4052743 204.663977,8.4052743 L204.663977,23.6468695 C204.89084,31.5282236 215.281715,30.7271014 215.456875,30.7210739 C220.079086,30.1895496 221.474033,28.6634722 221.474033,28.6634722 C222.758713,27.6727548 223.090567,26.3001071 223.090567,26.3001071 C223.457242,25.5000809 223.549042,22.9526002 223.549042,22.9526002 L223.549042,13.9988822 L214.157949,13.9988822 Z M191.326514,18.6828713 L191.008378,18.6828713 L183.587304,1.07900689 L174.709028,1.07900689 L174.709028,30.0059819 L181.935421,30.0059819 L181.50227,12.4054053 L181.82621,12.4054053 L189.513717,30.0059819 L198.121867,30.0059819 L198.121867,1.07626708 L190.804201,1.07626708 L191.326514,18.6828713 Z M159.280729,22.7980746 C159.280729,22.7980746 159.385191,25.1729469 157.265337,25.1729469 C157.265337,25.1729469 155.036799,25.2967866 155.036799,22.8583505 L155.014112,1.09599375 L147.088136,1.09599375 L147.088136,22.6846462 C147.088136,22.6846462 146.275648,30.8559726 157.377713,30.8559726 C157.377713,30.8559726 167.025215,30.9742328 167.025215,23.060001 L167.025215,1.09708968 L159.280729,1.09708968 L159.280729,22.7980746 Z M46.9321295,14.3950596 C46.9321295,14.3950596 44.9515586,13.1215932 43.7233302,12.6300702 C43.7233302,12.6300702 39.9304894,10.803709 39.1770916,9.93244762 C39.1770916,9.93244762 37.6977307,8.4825371 38.5656154,6.80412595 C38.5656154,6.80412595 38.9264866,5.7043639 40.4892067,5.7043639 C40.4892067,5.7043639 42.5257021,5.81834024 42.5257021,7.55647937 L42.5257021,10.0069706 L49.8222647,10.0069706 L49.8085474,6.39644137 C49.8085474,6.39644137 50.3656819,0.483918906 41.216225,0.225280296 C41.216225,0.225280296 40.5266655,0.179251391 39.5147489,0.232403817 C39.5147489,0.232403817 33.9724213,0.541455037 31.9907951,3.69936671 C31.9791882,3.72347709 31.9628329,3.74046395 31.9512259,3.76128655 C31.9512259,3.76128655 31.1424312,4.65830223 31.1424312,7.78826778 L31.1424312,10.0491638 C31.1424312,10.0491638 31.0585445,12.6569204 32.3416422,14.3380714 C32.3416422,14.3380714 33.0670777,15.4405733 34.8524405,16.6559555 C34.8524405,16.6559555 38.4785631,18.6839672 40.6553973,19.8451011 C40.6553973,19.8451011 42.8549179,21.1454177 42.5631609,23.2216501 C42.5631609,23.2216501 42.3843081,25.349939 40.2639259,25.2622649 C40.2639259,25.2622649 38.3239794,25.1729469 38.3239794,23.0852073 L38.3239794,20.634716 L30.5494207,20.634716 L30.5494207,24.1948327 C30.5494207,24.1948327 30.3320538,30.9994391 40.3187952,30.9994391 C40.3187952,30.9994391 49.8607788,31.1999937 50.3097574,24.0161967 L50.3097574,21.1213073 C50.3097574,21.1191155 50.643194,16.7140396 46.9321295,14.3950596 L46.9321295,14.3950596 Z" id="Fill-7" fill="#2D2A2B" mask="url(#mask-0)"></path>
            </g>
        </g>
    </g>
</svg>